<mxfile host="Electron" agent="Mozilla/5.0 (Windows NT 10.0; Win64; x64) AppleWebKit/537.36 (KHTML, like Gecko) draw.io/24.7.17 Chrome/128.0.6613.36 Electron/32.0.1 Safari/537.36" version="24.7.17">
  <diagram name="Страница — 1" id="18fFIu95Zde8k4f31owS">
    <mxGraphModel dx="1036" dy="606" grid="1" gridSize="10" guides="1" tooltips="1" connect="1" arrows="1" fold="1" page="1" pageScale="1" pageWidth="827" pageHeight="1169" math="0" shadow="0">
      <root>
        <mxCell id="0" />
        <mxCell id="1" parent="0" />
        <mxCell id="rWrGN3gHzVz8Coaauby0-2" value="" style="rounded=1;whiteSpace=wrap;html=1;rotation=90;" vertex="1" parent="1">
          <mxGeometry x="65" y="105" width="270" height="160" as="geometry" />
        </mxCell>
        <mxCell id="rWrGN3gHzVz8Coaauby0-6" value="" style="rounded=1;whiteSpace=wrap;html=1;rotation=90;" vertex="1" parent="1">
          <mxGeometry x="65.07000000000001" y="410" width="270" height="160" as="geometry" />
        </mxCell>
        <mxCell id="rWrGN3gHzVz8Coaauby0-7" value="&lt;span style=&quot;color: rgba(0, 0, 0, 0); font-family: monospace; font-size: 0px; text-align: start; text-wrap: nowrap;&quot;&gt;%3CmxGraphModel%3E%3Croot%3E%3CmxCell%20id%3D%220%22%2F%3E%3CmxCell%20id%3D%221%22%20parent%3D%220%22%2F%3E%3CmxCell%20id%3D%222%22%20value%3D%22%26lt%3Bfont%20style%3D%26quot%3Bfont-size%3A%209px%3B%26quot%3B%26gt%3B%D0%94%D0%B0%D1%82%D0%B0%20%D0%B4%D0%BE%D1%81%D1%82%D0%B0%D0%B2%D0%BA%D0%B8%3A%2014%20%D0%BE%D0%BA%D1%82%D1%8F%D0%B1%D1%80%D1%8F%26lt%3B%2Ffont%26gt%3B%22%20style%3D%22rounded%3D0%3BwhiteSpace%3Dwrap%3Bhtml%3D1%3BfillColor%3D%23f8cecc%3BstrokeColor%3D%23FF3333%3BstrokeWidth%3D4%3B%22%20vertex%3D%221%22%20parent%3D%221%22%3E%3CmxGeometry%20x%3D%22419.93%22%20y%3D%22160%22%20width%3D%22130.07%22%20height%3D%2220%22%20as%3D%22geometry%22%2F%3E%3C%2FmxCell%3E%3C%2Froot%3E%3C%2FmxGraphModel%3E&lt;/span&gt;" style="rounded=1;whiteSpace=wrap;html=1;rotation=90;" vertex="1" parent="1">
          <mxGeometry x="345" y="410" width="270" height="160" as="geometry" />
        </mxCell>
        <mxCell id="rWrGN3gHzVz8Coaauby0-8" value="" style="rounded=1;whiteSpace=wrap;html=1;rotation=90;" vertex="1" parent="1">
          <mxGeometry x="350" y="105" width="270" height="160" as="geometry" />
        </mxCell>
        <mxCell id="rWrGN3gHzVz8Coaauby0-9" value="Имя" style="rounded=0;whiteSpace=wrap;html=1;" vertex="1" parent="1">
          <mxGeometry x="129.93" y="60" width="70" height="30" as="geometry" />
        </mxCell>
        <mxCell id="rWrGN3gHzVz8Coaauby0-10" value="Кошелек" style="rounded=0;whiteSpace=wrap;html=1;align=left;" vertex="1" parent="1">
          <mxGeometry x="130" y="130" width="70" height="20" as="geometry" />
        </mxCell>
        <mxCell id="rWrGN3gHzVz8Coaauby0-11" value="Доставки" style="rounded=0;whiteSpace=wrap;html=1;fillColor=#f8cecc;strokeColor=#FF3333;strokeWidth=4;align=left;" vertex="1" parent="1">
          <mxGeometry x="130.07" y="160" width="140" height="30" as="geometry" />
        </mxCell>
        <mxCell id="rWrGN3gHzVz8Coaauby0-12" value="Покупки" style="rounded=0;whiteSpace=wrap;html=1;align=left;" vertex="1" parent="1">
          <mxGeometry x="130" y="190" width="140" height="30" as="geometry" />
        </mxCell>
        <mxCell id="rWrGN3gHzVz8Coaauby0-13" value="Лист ожидания" style="rounded=0;whiteSpace=wrap;html=1;align=left;" vertex="1" parent="1">
          <mxGeometry x="129.93" y="220" width="140" height="30" as="geometry" />
        </mxCell>
        <mxCell id="rWrGN3gHzVz8Coaauby0-14" value="Отложенные" style="rounded=0;whiteSpace=wrap;html=1;align=left;" vertex="1" parent="1">
          <mxGeometry x="130" y="250" width="140" height="30" as="geometry" />
        </mxCell>
        <mxCell id="rWrGN3gHzVz8Coaauby0-15" value="Отзывы" style="rounded=0;whiteSpace=wrap;html=1;align=left;" vertex="1" parent="1">
          <mxGeometry x="130" y="280" width="140" height="30" as="geometry" />
        </mxCell>
        <mxCell id="rWrGN3gHzVz8Coaauby0-16" value="" style="rounded=0;whiteSpace=wrap;html=1;" vertex="1" parent="1">
          <mxGeometry x="230" y="60" width="30" height="30" as="geometry" />
        </mxCell>
        <mxCell id="rWrGN3gHzVz8Coaauby0-17" value="" style="shape=delay;whiteSpace=wrap;html=1;rotation=-90;" vertex="1" parent="1">
          <mxGeometry x="235.05" y="67.5" width="19.91" height="15" as="geometry" />
        </mxCell>
        <mxCell id="rWrGN3gHzVz8Coaauby0-23" value="Рассрочка" style="rounded=0;whiteSpace=wrap;html=1;align=left;" vertex="1" parent="1">
          <mxGeometry x="200" y="130" width="70.07" height="20" as="geometry" />
        </mxCell>
        <mxCell id="rWrGN3gHzVz8Coaauby0-25" value="Подписка" style="rounded=0;whiteSpace=wrap;html=1;align=left;" vertex="1" parent="1">
          <mxGeometry x="129.93" y="100" width="50.07" height="30" as="geometry" />
        </mxCell>
        <mxCell id="rWrGN3gHzVz8Coaauby0-26" value="Скидка" style="rounded=0;whiteSpace=wrap;html=1;align=left;" vertex="1" parent="1">
          <mxGeometry x="180.07" y="100" width="39.93" height="30" as="geometry" />
        </mxCell>
        <mxCell id="rWrGN3gHzVz8Coaauby0-27" value="Оплата" style="rounded=0;whiteSpace=wrap;html=1;align=left;" vertex="1" parent="1">
          <mxGeometry x="220" y="100" width="50" height="30" as="geometry" />
        </mxCell>
        <mxCell id="rWrGN3gHzVz8Coaauby0-34" style="edgeStyle=orthogonalEdgeStyle;rounded=0;orthogonalLoop=1;jettySize=auto;html=1;entryX=0.463;entryY=0.996;entryDx=0;entryDy=0;entryPerimeter=0;" edge="1" parent="1" source="rWrGN3gHzVz8Coaauby0-11" target="rWrGN3gHzVz8Coaauby0-8">
          <mxGeometry relative="1" as="geometry" />
        </mxCell>
        <mxCell id="rWrGN3gHzVz8Coaauby0-35" value="QR-код для&amp;nbsp;&lt;div&gt;получения&lt;/div&gt;" style="rounded=0;whiteSpace=wrap;html=1;" vertex="1" parent="1">
          <mxGeometry x="447.04" y="85" width="62.96" height="55" as="geometry" />
        </mxCell>
        <mxCell id="rWrGN3gHzVz8Coaauby0-36" value="" style="rounded=0;whiteSpace=wrap;html=1;" vertex="1" parent="1">
          <mxGeometry x="411.97" y="147.5" width="146" height="82.5" as="geometry" />
        </mxCell>
        <mxCell id="rWrGN3gHzVz8Coaauby0-38" value="&lt;span style=&quot;color: rgba(0, 0, 0, 0); font-family: monospace; font-size: 0px; text-align: start; text-wrap: nowrap;&quot;&gt;%3CmxGraphModel%3E%3Croot%3E%3CmxCell%20id%3D%220%22%2F%3E%3CmxCell%20id%3D%221%22%20parent%3D%220%22%2F%3E%3CmxCell%20id%3D%222%22%20value%3D%22%26lt%3Bfont%20style%3D%26quot%3Bfont-size%3A%209px%3B%26quot%3B%26gt%3B%D0%94%D0%B0%D1%82%D0%B0%20%D0%B4%D0%BE%D1%81%D1%82%D0%B0%D0%B2%D0%BA%D0%B8%3A%2014%20%D0%BE%D0%BA%D1%82%D1%8F%D0%B1%D1%80%D1%8F%26lt%3B%2Ffont%26gt%3B%22%20style%3D%22rounded%3D0%3BwhiteSpace%3Dwrap%3Bhtml%3D1%3B%22%20vertex%3D%221%22%20parent%3D%221%22%3E%3CmxGeometry%20x%3D%22419.93%22%20y%3D%22160%22%20width%3D%22130.07%22%20height%3D%2220%22%20as%3D%22geometry%22%2F%3E%3C%2FmxCell%3E%3C%2Froot%3E%3C%2FmxGraphModel%3E&lt;/span&gt;" style="rounded=0;whiteSpace=wrap;html=1;" vertex="1" parent="1">
          <mxGeometry x="414" y="232.5" width="146" height="77.5" as="geometry" />
        </mxCell>
        <mxCell id="rWrGN3gHzVz8Coaauby0-47" style="edgeStyle=orthogonalEdgeStyle;rounded=0;orthogonalLoop=1;jettySize=auto;html=1;exitX=1;exitY=0.5;exitDx=0;exitDy=0;" edge="1" parent="1" source="rWrGN3gHzVz8Coaauby0-39">
          <mxGeometry relative="1" as="geometry">
            <mxPoint x="562" y="410" as="targetPoint" />
            <Array as="points">
              <mxPoint x="620" y="160" />
              <mxPoint x="620" y="410" />
            </Array>
          </mxGeometry>
        </mxCell>
        <mxCell id="rWrGN3gHzVz8Coaauby0-74" style="edgeStyle=orthogonalEdgeStyle;rounded=0;orthogonalLoop=1;jettySize=auto;html=1;exitX=0.75;exitY=0;exitDx=0;exitDy=0;entryX=0.75;entryY=0;entryDx=0;entryDy=0;" edge="1" parent="1" source="rWrGN3gHzVz8Coaauby0-39" target="rWrGN3gHzVz8Coaauby0-36">
          <mxGeometry relative="1" as="geometry" />
        </mxCell>
        <mxCell id="rWrGN3gHzVz8Coaauby0-39" value="&lt;font style=&quot;font-size: 9px;&quot;&gt;Заказ № 345 от 10 октября&lt;/font&gt;" style="rounded=0;whiteSpace=wrap;html=1;fillColor=#f8cecc;strokeColor=#FF3333;strokeWidth=4;" vertex="1" parent="1">
          <mxGeometry x="419.93" y="150" width="130.07" height="20" as="geometry" />
        </mxCell>
        <mxCell id="rWrGN3gHzVz8Coaauby0-40" value="&lt;font style=&quot;font-size: 9px;&quot;&gt;Заказ №346 от 11 октября&lt;/font&gt;" style="rounded=0;whiteSpace=wrap;html=1;" vertex="1" parent="1">
          <mxGeometry x="419.96" y="232.5" width="130.07" height="20" as="geometry" />
        </mxCell>
        <mxCell id="rWrGN3gHzVz8Coaauby0-41" value="" style="rounded=0;whiteSpace=wrap;html=1;" vertex="1" parent="1">
          <mxGeometry x="417.98999999999995" y="180" width="20" height="30" as="geometry" />
        </mxCell>
        <mxCell id="rWrGN3gHzVz8Coaauby0-42" value="" style="rounded=0;whiteSpace=wrap;html=1;" vertex="1" parent="1">
          <mxGeometry x="447.04" y="180" width="20" height="30" as="geometry" />
        </mxCell>
        <mxCell id="rWrGN3gHzVz8Coaauby0-43" value="" style="rounded=0;whiteSpace=wrap;html=1;" vertex="1" parent="1">
          <mxGeometry x="476.98" y="180" width="20.04" height="30" as="geometry" />
        </mxCell>
        <mxCell id="rWrGN3gHzVz8Coaauby0-44" value="" style="rounded=0;whiteSpace=wrap;html=1;" vertex="1" parent="1">
          <mxGeometry x="447" y="256.25" width="20.04" height="30" as="geometry" />
        </mxCell>
        <mxCell id="rWrGN3gHzVz8Coaauby0-45" value="" style="rounded=0;whiteSpace=wrap;html=1;" vertex="1" parent="1">
          <mxGeometry x="415.97999999999996" y="256.25" width="20.04" height="30" as="geometry" />
        </mxCell>
        <mxCell id="rWrGN3gHzVz8Coaauby0-48" value="&lt;font style=&quot;font-size: 9px;&quot;&gt;Дата доставки: 14 октября&lt;/font&gt;" style="rounded=0;whiteSpace=wrap;html=1;strokeWidth=4;fillColor=#f8cecc;strokeColor=#FF3333;" vertex="1" parent="1">
          <mxGeometry x="415.98" y="440" width="130.07" height="20" as="geometry" />
        </mxCell>
        <mxCell id="rWrGN3gHzVz8Coaauby0-49" value="&lt;font style=&quot;font-size: 9px;&quot;&gt;Дата доставки: 15 октября&lt;/font&gt;" style="rounded=0;whiteSpace=wrap;html=1;" vertex="1" parent="1">
          <mxGeometry x="414.89" y="530" width="130.07" height="20" as="geometry" />
        </mxCell>
        <mxCell id="rWrGN3gHzVz8Coaauby0-50" value="Заказ № 345 от 10 октября" style="rounded=0;whiteSpace=wrap;html=1;" vertex="1" parent="1">
          <mxGeometry x="417.99" y="390" width="120" height="40" as="geometry" />
        </mxCell>
        <mxCell id="rWrGN3gHzVz8Coaauby0-53" value="" style="rounded=0;whiteSpace=wrap;html=1;" vertex="1" parent="1">
          <mxGeometry x="419.93" y="470" width="20.07" height="30" as="geometry" />
        </mxCell>
        <mxCell id="rWrGN3gHzVz8Coaauby0-54" style="edgeStyle=orthogonalEdgeStyle;rounded=0;orthogonalLoop=1;jettySize=auto;html=1;" edge="1" parent="1" source="rWrGN3gHzVz8Coaauby0-48">
          <mxGeometry relative="1" as="geometry">
            <mxPoint x="280" y="460" as="targetPoint" />
            <Array as="points">
              <mxPoint x="280" y="460" />
            </Array>
          </mxGeometry>
        </mxCell>
        <mxCell id="rWrGN3gHzVz8Coaauby0-55" value="Заказ №345 от 10 октября&lt;div&gt;Дата доставки: 14 октября&lt;/div&gt;" style="rounded=0;whiteSpace=wrap;html=1;" vertex="1" parent="1">
          <mxGeometry x="134.96" y="390" width="125.04" height="70" as="geometry" />
        </mxCell>
        <mxCell id="rWrGN3gHzVz8Coaauby0-57" value="Назад" style="rounded=0;whiteSpace=wrap;html=1;" vertex="1" parent="1">
          <mxGeometry x="414" y="360" width="44.02" height="20" as="geometry" />
        </mxCell>
        <mxCell id="rWrGN3gHzVz8Coaauby0-59" value="Назад" style="rounded=0;whiteSpace=wrap;html=1;" vertex="1" parent="1">
          <mxGeometry x="414" y="60" width="44.02" height="20" as="geometry" />
        </mxCell>
        <mxCell id="rWrGN3gHzVz8Coaauby0-60" value="Карточке о товаре" style="rounded=0;whiteSpace=wrap;html=1;" vertex="1" parent="1">
          <mxGeometry x="130.07" y="470" width="55.04" height="80" as="geometry" />
        </mxCell>
        <mxCell id="rWrGN3gHzVz8Coaauby0-61" value="Отмена заказа" style="rounded=0;whiteSpace=wrap;html=1;" vertex="1" parent="1">
          <mxGeometry x="134.96" y="570" width="125.04" height="30" as="geometry" />
        </mxCell>
        <mxCell id="rWrGN3gHzVz8Coaauby0-62" value="Информация о товаре" style="rounded=0;whiteSpace=wrap;html=1;" vertex="1" parent="1">
          <mxGeometry x="185.11" y="470" width="74.89" height="80" as="geometry" />
        </mxCell>
        <mxCell id="rWrGN3gHzVz8Coaauby0-63" value="Отмена заказа" style="rounded=0;whiteSpace=wrap;html=1;" vertex="1" parent="1">
          <mxGeometry x="415.98" y="505" width="124.02" height="15" as="geometry" />
        </mxCell>
        <mxCell id="rWrGN3gHzVz8Coaauby0-64" value="Отмена заказа" style="rounded=0;whiteSpace=wrap;html=1;" vertex="1" parent="1">
          <mxGeometry x="419.93" y="300" width="130.07" height="10" as="geometry" />
        </mxCell>
        <mxCell id="rWrGN3gHzVz8Coaauby0-65" value="Отмена заказа" style="rounded=0;whiteSpace=wrap;html=1;" vertex="1" parent="1">
          <mxGeometry x="419.92" y="220" width="125.04" height="10" as="geometry" />
        </mxCell>
        <mxCell id="rWrGN3gHzVz8Coaauby0-67" value="" style="rounded=0;whiteSpace=wrap;html=1;" vertex="1" parent="1">
          <mxGeometry x="450" y="555" width="20.07" height="30" as="geometry" />
        </mxCell>
        <mxCell id="rWrGN3gHzVz8Coaauby0-70" value="Отмена заказа" style="rounded=0;whiteSpace=wrap;html=1;" vertex="1" parent="1">
          <mxGeometry x="414.89000000000004" y="590" width="124.02" height="15" as="geometry" />
        </mxCell>
        <mxCell id="rWrGN3gHzVz8Coaauby0-72" value="" style="rounded=0;whiteSpace=wrap;html=1;" vertex="1" parent="1">
          <mxGeometry x="419.96" y="555" width="20.07" height="30" as="geometry" />
        </mxCell>
        <mxCell id="rWrGN3gHzVz8Coaauby0-81" value="&lt;font style=&quot;font-size: 13px;&quot;&gt;&lt;i&gt;&lt;b&gt;Группировка по номеру и дате заказа.&lt;/b&gt;&lt;/i&gt;&lt;/font&gt;" style="whiteSpace=wrap;html=1;shape=mxgraph.basic.cloud_callout" vertex="1" parent="1">
          <mxGeometry x="580" y="50" width="200" height="97.5" as="geometry" />
        </mxCell>
        <mxCell id="rWrGN3gHzVz8Coaauby0-82" value="&lt;font style=&quot;font-size: 13px;&quot;&gt;&lt;i&gt;&lt;b&gt;Группировка по дате доставки.&lt;/b&gt;&lt;/i&gt;&lt;/font&gt;" style="whiteSpace=wrap;html=1;shape=mxgraph.basic.cloud_callout;align=center;" vertex="1" parent="1">
          <mxGeometry x="570" y="430" width="200" height="100" as="geometry" />
        </mxCell>
        <mxCell id="rWrGN3gHzVz8Coaauby0-83" value="Назад" style="rounded=0;whiteSpace=wrap;html=1;" vertex="1" parent="1">
          <mxGeometry x="134.95999999999998" y="360" width="44.02" height="20" as="geometry" />
        </mxCell>
      </root>
    </mxGraphModel>
  </diagram>
</mxfile>
